<mxfile host="Electron" agent="Mozilla/5.0 (Windows NT 10.0; Win64; x64) AppleWebKit/537.36 (KHTML, like Gecko) draw.io/24.7.17 Chrome/128.0.6613.36 Electron/32.0.1 Safari/537.36" version="24.7.17">
  <diagram name="Page-1" id="bitNABkU5gJBnrwek6_s">
    <mxGraphModel dx="1036" dy="654" grid="1" gridSize="10" guides="1" tooltips="1" connect="1" arrows="1" fold="1" page="1" pageScale="1" pageWidth="827" pageHeight="1169" math="0" shadow="0">
      <root>
        <mxCell id="0" />
        <mxCell id="1" parent="0" />
        <mxCell id="Ym1MAbosUFVKNqCHYtxZ-4" value="PowerDeal" style="shape=umlLifeline;perimeter=lifelinePerimeter;whiteSpace=wrap;html=1;container=1;collapsible=0;recursiveResize=0;outlineConnect=0;rounded=1;shadow=0;comic=0;labelBackgroundColor=none;strokeWidth=1;fontFamily=Verdana;fontSize=12;align=center;" vertex="1" parent="1">
          <mxGeometry x="40" y="40" width="100" height="360" as="geometry" />
        </mxCell>
        <mxCell id="Ym1MAbosUFVKNqCHYtxZ-6" value="House" style="shape=umlLifeline;perimeter=lifelinePerimeter;whiteSpace=wrap;html=1;container=1;collapsible=0;recursiveResize=0;outlineConnect=0;rounded=1;shadow=0;comic=0;labelBackgroundColor=none;strokeWidth=1;fontFamily=Verdana;fontSize=12;align=center;" vertex="1" parent="1">
          <mxGeometry x="280" y="40" width="100" height="360" as="geometry" />
        </mxCell>
        <mxCell id="Ym1MAbosUFVKNqCHYtxZ-8" value="store" style="html=1;verticalAlign=bottom;endArrow=block;labelBackgroundColor=none;fontFamily=Verdana;fontSize=12;elbow=vertical;edgeStyle=orthogonalEdgeStyle;curved=1;exitX=1.066;exitY=0.713;exitPerimeter=0;" edge="1" parent="Ym1MAbosUFVKNqCHYtxZ-6">
          <mxGeometry x="0.1049" y="26" relative="1" as="geometry">
            <mxPoint x="55" y="90" as="sourcePoint" />
            <mxPoint x="49" y="129" as="targetPoint" />
            <Array as="points">
              <mxPoint x="104" y="90" />
              <mxPoint x="104" y="129" />
            </Array>
            <mxPoint as="offset" />
          </mxGeometry>
        </mxCell>
        <mxCell id="Ym1MAbosUFVKNqCHYtxZ-11" value="3. extract power" style="html=1;verticalAlign=bottom;endArrow=block;labelBackgroundColor=none;fontFamily=Verdana;fontSize=12;elbow=vertical;edgeStyle=orthogonalEdgeStyle;curved=1;exitX=1.066;exitY=0.713;exitPerimeter=0;" edge="1" parent="Ym1MAbosUFVKNqCHYtxZ-6">
          <mxGeometry x="0.1049" y="55" relative="1" as="geometry">
            <mxPoint x="56" y="240" as="sourcePoint" />
            <mxPoint x="50" y="279" as="targetPoint" />
            <Array as="points">
              <mxPoint x="105" y="240" />
              <mxPoint x="105" y="279" />
            </Array>
            <mxPoint as="offset" />
          </mxGeometry>
        </mxCell>
        <mxCell id="Ym1MAbosUFVKNqCHYtxZ-12" value="4. credit" style="html=1;verticalAlign=bottom;endArrow=block;labelBackgroundColor=none;fontFamily=Verdana;fontSize=12;elbow=vertical;edgeStyle=orthogonalEdgeStyle;curved=1;exitX=1.066;exitY=0.713;exitPerimeter=0;" edge="1" parent="Ym1MAbosUFVKNqCHYtxZ-6">
          <mxGeometry x="0.1049" y="35" relative="1" as="geometry">
            <mxPoint x="56" y="290" as="sourcePoint" />
            <mxPoint x="50" y="329" as="targetPoint" />
            <Array as="points">
              <mxPoint x="105" y="290" />
              <mxPoint x="105" y="329" />
            </Array>
            <mxPoint as="offset" />
          </mxGeometry>
        </mxCell>
        <mxCell id="Ym1MAbosUFVKNqCHYtxZ-7" value="0. OFFER (broadcast, 1, price)" style="endArrow=classic;html=1;rounded=0;" edge="1" parent="1" source="Ym1MAbosUFVKNqCHYtxZ-4" target="Ym1MAbosUFVKNqCHYtxZ-6">
          <mxGeometry x="0.0042" y="20" width="50" height="50" relative="1" as="geometry">
            <mxPoint x="390" y="320" as="sourcePoint" />
            <mxPoint x="440" y="270" as="targetPoint" />
            <Array as="points">
              <mxPoint x="210" y="120" />
            </Array>
            <mxPoint as="offset" />
          </mxGeometry>
        </mxCell>
        <mxCell id="Ym1MAbosUFVKNqCHYtxZ-9" value="1. OFFER(PowerDealID. amount, price)" style="endArrow=classic;html=1;rounded=0;" edge="1" parent="1">
          <mxGeometry x="-0.0021" y="-20" width="50" height="50" relative="1" as="geometry">
            <mxPoint x="330" y="200" as="sourcePoint" />
            <mxPoint x="89.5" y="200" as="targetPoint" />
            <mxPoint as="offset" />
          </mxGeometry>
        </mxCell>
        <mxCell id="Ym1MAbosUFVKNqCHYtxZ-10" value="2. PURCHASE(HouseId, amount, price)" style="endArrow=classic;html=1;rounded=0;" edge="1" parent="1" source="Ym1MAbosUFVKNqCHYtxZ-4">
          <mxGeometry x="0.0062" y="20" width="50" height="50" relative="1" as="geometry">
            <mxPoint x="390" y="320" as="sourcePoint" />
            <mxPoint x="330" y="270" as="targetPoint" />
            <mxPoint as="offset" />
          </mxGeometry>
        </mxCell>
      </root>
    </mxGraphModel>
  </diagram>
</mxfile>
